HIERARCHY
ROOT Hips
{
	OFFSET 0.000000 0.000000 0.000000
	CHANNELS 6 Xposition Yposition Zposition Zrotation Yrotation Xrotation 
	JOINT LHipJoint
	{
		OFFSET 0.000000 0.000000 0.000000
		CHANNELS 3 Zrotation Yrotation Xrotation
		JOINT LeftUpLeg
		{
			OFFSET 1.363060 -1.794630 0.839290
			CHANNELS 3 Zrotation Yrotation Xrotation
			JOINT LeftLeg
			{
				OFFSET 2.448110 -6.726130 0.000000
				CHANNELS 3 Zrotation Yrotation Xrotation
				JOINT LeftFoot
				{
					OFFSET 2.562200 -7.039590 0.000000
					CHANNELS 3 Zrotation Yrotation Xrotation
					JOINT LeftToeBase
					{
						OFFSET 0.157640 -0.433110 2.322550
						CHANNELS 3 Zrotation Yrotation Xrotation
						End Site
						{
							OFFSET 0.000000 0.000000 0.000000
						}
					}
				}
			}
		}
	}
	JOINT RHipJoint
	{
		OFFSET 0.000000 0.000000 0.000000
		CHANNELS 3 Zrotation Yrotation Xrotation
		JOINT RightUpLeg
		{
			OFFSET -1.305520 -1.794630 0.839290
			CHANNELS 3 Zrotation Yrotation Xrotation
			JOINT RightLeg
			{
				OFFSET -2.542530 -6.985550 0.000000
				CHANNELS 3 Zrotation Yrotation Xrotation
				JOINT RightFoot
				{
					OFFSET -2.568260 -7.056230 0.000000
					CHANNELS 3 Zrotation Yrotation Xrotation
					JOINT RightToeBase
					{
						OFFSET -0.164730 -0.452590 2.363150
						CHANNELS 3 Zrotation Yrotation Xrotation
						End Site
						{
							OFFSET 0.000000 0.000000 0.000000
						}
					}
				}
			}
		}
	}
	JOINT LowerBack
	{
		OFFSET 0.000000 0.000000 0.000000
		CHANNELS 3 Zrotation Yrotation Xrotation
		JOINT Spine
		{
			OFFSET 0.028270 2.035590 -0.193380
			CHANNELS 3 Zrotation Yrotation Xrotation
			JOINT Spine1
			{
				OFFSET 0.056720 2.048850 -0.042750
				CHANNELS 3 Zrotation Yrotation Xrotation
				JOINT Neck
				{
					OFFSET 0.000000 0.000000 0.000000
					CHANNELS 3 Zrotation Yrotation Xrotation
					JOINT Neck1
					{
						OFFSET -0.054170 1.746240 0.172020
						CHANNELS 3 Zrotation Yrotation Xrotation
						JOINT Head
						{
							OFFSET 0.104070 1.761360 -0.123970
							CHANNELS 3 Zrotation Yrotation Xrotation
							End Site
							{
								OFFSET 0.000000 0.000000 0.000000
							}
						}
					}
				}
				JOINT LeftShoulder
				{
					OFFSET 0.000000 0.000000 0.000000
					CHANNELS 3 Zrotation Yrotation Xrotation
					JOINT LeftArm
					{
						OFFSET 3.362410 1.200890 -0.311210
						CHANNELS 3 Zrotation Yrotation Xrotation
						JOINT LeftForeArm
						{
							OFFSET 4.983000 -0.000000 -0.000000
							CHANNELS 3 Zrotation Yrotation Xrotation
							JOINT LeftHand
							{
								OFFSET 3.483560 -0.000000 -0.000000
								CHANNELS 3 Zrotation Yrotation Xrotation
								JOINT LeftFingerBase
								{
									OFFSET 0.000000 0.000000 0.000000
									CHANNELS 3 Zrotation Yrotation Xrotation
									JOINT LeftHandIndex1
									{
										OFFSET 0.715260 -0.000000 -0.000000
										CHANNELS 3 Zrotation Yrotation Xrotation
										End Site
										{
											OFFSET 0.000000 0.000000 0.000000
										}
									}
								}
								JOINT LThumb
								{
									OFFSET 0.000000 0.000000 0.000000
									CHANNELS 3 Zrotation Yrotation Xrotation
									End Site
									{
										OFFSET 0.000000 0.000000 0.000000
									}
								}
							}
						}
					}
				}
				JOINT RightShoulder
				{
					OFFSET 0.000000 0.000000 0.000000
					CHANNELS 3 Zrotation Yrotation Xrotation
					JOINT RightArm
					{
						OFFSET -3.136600 1.374050 -0.404650
						CHANNELS 3 Zrotation Yrotation Xrotation
						JOINT RightForeArm
						{
							OFFSET -5.241900 -0.000000 -0.000000
							CHANNELS 3 Zrotation Yrotation Xrotation
							JOINT RightHand
							{
								OFFSET -3.444170 -0.000000 -0.000000
								CHANNELS 3 Zrotation Yrotation Xrotation
								JOINT RightFingerBase
								{
									OFFSET 0.000000 0.000000 0.000000
									CHANNELS 3 Zrotation Yrotation Xrotation
									JOINT RightHandIndex1
									{
										OFFSET -0.622530 -0.000000 -0.000000
										CHANNELS 3 Zrotation Yrotation Xrotation
										End Site
										{
											OFFSET 0.000000 0.000000 0.000000
										}
									}
								}
								JOINT RThumb
								{
									OFFSET 0.000000 0.000000 0.000000
									CHANNELS 3 Zrotation Yrotation Xrotation
									End Site
									{
										OFFSET 0.000000 0.000000 0.000000
									}
								}
							}
						}
					}
				}
			}
		}
	}
}
MOTION
Frames: 8
Frame Time: 0.008333
-8.071061 16.306637 -2.654104 8.123045 85.115024 28.907281 -9.713690 -1.597157 2.475434 -1.191350 -2.202693 -51.771132 -1.682284 0.799029 18.002671 0.150842 0.078712 10.987141 0.337600 -0.000000 -46.286701 9.615034 -2.567493 -2.307396 5.279840 -1.142115 -2.176712 1.193179 -2.354179 31.766106 0.436028 5.632107 1.595053 0.708900 0.000000 -84.287700 -4.242270 0.564705 1.240654 -1.295598 0.826994 -2.552053 -4.185298 0.748270 1.161128 7.877169 -3.136311 -5.383272 -2.190565 -0.190714 0.486895 0.000000 0.000000 0.000000 -7.681334 8.983050 2.672410 -67.567244 20.647683 9.659865 -4.297820 -23.956821 -0.024125 -12.069573 3.863483 -0.416357 -0.065732 -0.091044 -0.000000 0.000000 0.000000 0.000000 0.000000 0.000000 0.000000 8.364563 1.235749 2.209830 39.501285 37.415728 24.018544 0.710948 75.431988 0.041133 11.169035 7.111722 0.738490 -0.164830 -0.321529 0.000000 0.000000 0.000000 0.000000 0.000000 0.000000 0.000000 
-7.837121 16.288410 -2.636157 14.103390 85.062222 34.686749 -9.700882 -1.661675 2.205735 -2.068133 -1.931051 -52.090018 -1.617853 1.015994 20.800578 0.196859 0.322552 11.292818 0.400400 0.000000 -43.159100 9.943688 -2.707533 -2.375927 4.510044 -2.023734 -3.650073 0.823839 -2.697039 35.313309 0.239247 4.587691 3.779080 0.757300 -0.000000 -85.259501 -4.852357 0.416445 1.476348 -1.430690 0.711541 -2.528113 -4.278271 0.633857 1.104858 8.216903 -3.106539 -5.327867 -2.255945 -0.195684 0.494580 0.000000 0.000000 0.000000 -7.502769 8.637119 2.740923 -67.530907 19.674582 9.114671 -4.340989 -22.958850 -0.022974 -11.806202 3.961454 -0.416529 -0.069838 -0.085742 -0.000000 0.000000 0.000000 0.000000 0.000000 0.000000 0.000000 8.916718 1.211494 2.172207 40.543515 36.238806 24.086896 0.745773 75.205392 0.040656 10.876421 7.113291 0.718734 -0.154576 -0.320273 0.000000 0.000000 0.000000 0.000000 0.000000 0.000000 0.000000 
-7.608950 16.278107 -2.617030 18.563093 84.886281 38.950967 -9.629571 -1.679231 1.932924 -2.933202 -1.562266 -52.245615 -1.574722 1.192135 23.290532 0.242587 0.601488 11.144930 0.477400 -0.000000 -40.505100 10.311134 -2.756699 -2.454397 3.787579 -2.911646 -5.233104 0.442160 -2.984960 38.886759 -0.032205 3.063237 5.898973 0.643600 -0.000000 -84.586200 -5.366381 0.303896 1.744089 -1.552756 0.625923 -2.501455 -4.385401 0.549910 1.037523 8.538021 -3.066263 -5.257031 -2.328815 -0.201311 0.505455 0.000000 0.000000 0.000000 -7.335412 8.254798 2.809135 -67.484053 18.538151 8.593795 -4.378075 -21.856349 -0.021627 -11.497591 4.066042 -0.415199 -0.073696 -0.079528 -0.000000 0.000000 0.000000 0.000000 0.000000 0.000000 0.000000 9.471115 1.208877 2.123936 41.757887 34.999214 24.146825 0.789794 74.815173 0.039947 10.522534 7.128602 0.696089 -0.142908 -0.318657 0.000000 0.000000 0.000000 0.000000 0.000000 0.000000 0.000000 
-7.386605 16.276139 -2.597407 21.714476 84.598968 41.920802 -9.532918 -1.657988 1.667527 -3.766486 -1.128293 -52.235713 -1.557331 1.332046 25.444122 0.287627 0.908419 10.556373 0.560300 -0.000001 -38.581600 10.674971 -2.719355 -2.541402 3.125127 -3.766650 -6.906108 0.071578 -3.220731 42.443593 -0.369107 1.067117 7.783824 0.310699 0.000000 -82.020600 -5.803750 0.221996 2.029282 -1.663266 0.565997 -2.475028 -4.502893 0.491756 0.958393 8.831955 -3.006191 -5.168345 -2.407551 -0.207511 0.520529 0.000000 0.000000 0.000000 -7.190544 7.843883 2.875203 -67.419847 17.256994 8.105798 -4.408573 -20.690681 -0.020115 -11.149185 4.170704 -0.411766 -0.077250 -0.072445 -0.000000 0.000000 0.000000 0.000000 0.000000 0.000000 0.000000 10.012431 1.231865 2.063209 43.137446 33.695050 24.186379 0.843495 74.243923 0.039044 10.129782 7.153428 0.671652 -0.130414 -0.316422 0.000000 0.000000 0.000000 0.000000 0.000000 0.000000 0.000000 
-7.169936 16.282701 -2.578110 23.726814 84.217414 43.770089 -9.434107 -1.608703 1.415067 -4.544442 -0.651281 -52.061340 -1.566054 1.439831 27.256292 0.332143 1.229711 9.579023 0.637300 0.000000 -37.478200 11.006568 -2.609282 -2.633813 2.543998 -4.557262 -8.648375 -0.267288 -3.413653 45.930534 -0.754814 -1.337092 9.271112 -0.256200 0.000000 -77.734500 -6.163947 0.164453 2.320876 -1.760195 0.525663 -2.449688 -4.627492 0.452973 0.871558 9.092944 -2.929164 -5.064890 -2.490830 -0.214142 0.539279 0.000000 0.000000 0.000000 -7.079018 7.423721 2.936103 -67.333537 15.843132 7.660666 -4.431593 -19.507783 -0.018472 -10.769106 4.267668 -0.405730 -0.080422 -0.064566 -0.000000 0.000000 0.000000 0.000000 0.000000 0.000000 0.000000 10.533650 1.270844 1.989714 44.655638 32.349395 24.200925 0.907197 73.470292 0.037932 9.711896 7.185732 0.645918 -0.117564 -0.313313 0.000000 0.000000 0.000000 0.000000 0.000000 0.000000 0.000000 
-6.958464 16.297676 -2.559868 24.763488 83.756921 44.664587 -9.347887 -1.541295 1.178513 -5.244200 -0.148306 -51.722632 -1.598010 1.518172 28.728852 0.377638 1.555669 8.299741 0.698700 0.000000 -37.164600 11.289370 -2.445146 -2.727512 2.062727 -5.257683 -10.440674 -0.561924 -3.576289 49.291963 -1.166521 -4.022347 10.225593 -1.011100 0.000000 -72.146600 -6.439524 0.125680 2.609420 -1.840710 0.499320 -2.426008 -4.756423 0.427752 0.780898 9.317379 -2.837039 -4.949863 -2.576943 -0.221037 0.561152 0.000000 0.000000 0.000000 -7.008179 7.012827 2.989255 -67.222993 14.315987 7.260774 -4.446663 -18.360800 -0.016737 -10.367593 4.349005 -0.396891 -0.083152 -0.056021 -0.000000 0.000000 0.000000 0.000000 0.000000 0.000000 0.000000 11.027604 1.318614 1.903612 46.287358 30.981705 24.181534 0.980982 72.476233 0.036624 9.282739 7.221660 0.619486 -0.104799 -0.309091 0.000000 0.000000 0.000000 0.000000 0.000000 0.000000 0.000000 
-6.751664 16.320778 -2.543310 24.948157 83.229048 44.729363 -9.284476 -1.463932 0.959949 -5.841107 0.369782 -51.222998 -1.647522 1.569413 29.868804 0.426431 1.882402 6.830094 0.739201 -0.000000 -37.537500 11.513582 -2.246738 -2.817056 1.701878 -5.841565 -12.263546 -0.810009 -3.719412 52.468468 -1.579790 -6.818715 10.582096 -1.853600 0.000000 -65.921899 -6.618354 0.102461 2.885203 -1.901461 0.483528 -2.406290 -4.887133 0.412415 0.683958 9.499490 -2.714250 -4.820128 -2.662678 -0.228016 0.587430 0.000000 0.000000 0.000000 -6.983012 6.617820 3.034432 -67.090341 12.714770 6.892985 -4.454107 -17.311054 -0.014962 -9.956935 4.407337 -0.385048 -0.085428 -0.046991 -0.000000 0.000000 0.000000 0.000000 0.000000 0.000000 0.000000 11.471560 1.389760 1.803334 48.028539 29.571422 24.094963 1.064039 71.255097 0.035176 8.867984 7.249272 0.592951 -0.092745 -0.303504 0.000000 0.000000 0.000000 0.000000 0.000000 0.000000 0.000000 
-6.548770 16.351532 -2.528452 24.458963 82.642459 44.145345 -9.245994 -1.381594 0.760739 -6.324022 0.888270 -50.567397 -1.707989 1.594581 30.680561 0.481003 2.218653 5.296993 0.760500 -0.000000 -38.440500 11.680960 -2.031327 -2.896333 1.466130 -6.291706 -14.106086 -1.015605 -3.851123 55.412097 -1.970101 -9.526109 10.337791 -2.651500 0.000000 -59.638601 -6.700696 0.089465 3.139024 -1.942202 0.473351 -2.388572 -5.018473 0.402134 0.593776 9.650211 -2.591914 -4.689507 -2.748248 -0.234911 0.614470 0.000000 0.000000 0.000000 -6.994951 6.266371 3.066782 -66.937220 11.047136 6.554498 -4.454335 -16.407983 -0.013193 -9.550228 4.435121 -0.370603 -0.087253 -0.037717 -0.000000 0.000000 0.000000 0.000000 0.000000 0.000000 0.000000 11.890758 1.446984 1.694649 49.822833 28.188148 23.950730 1.156299 69.789242 0.033547 8.451068 7.269279 0.565611 -0.081166 -0.296536 0.000000 0.000000 0.000000 0.000000 0.000000 0.000000 0.000000 
